<?xml version="1.0" encoding="utf-8"?>
<svg version="1.1" id="Layer_1" xmlns="http://www.w3.org/2000/svg" xmlns:xlink="http://www.w3.org/1999/xlink" x="0px" y="0px"
	 viewBox="0 0 858 231" width="150" height="41" style="enable-background:new 0 0 858 231;" xml:space="preserve">
<style type="text/css">
	.st0{fill:#151928;}
</style>
<g>
	<path class="st0" d="M284.88,118.15h-0.22L259.8,61.37h-22.65l43.14,91.94c0.09,0.22,0.2,0.44,0.37,0.64h8.23
		c0.17-0.2,0.28-0.42,0.37-0.64l43.23-91.9l-21.7,0.15L284.88,118.15z"/>
	<path class="st0" d="M386.94,59.08c-25.74,0-46.43,22.07-46.43,48.05c0,26.42,20.69,48.49,46.43,48.49
		c25.74,0,46.43-22.07,46.43-48.49C433.37,81.14,412.68,59.08,386.94,59.08z M386.94,135.86c-14.48,0-25.98-12.88-25.98-28.74
		c0-15.41,11.5-28.06,25.98-28.06c14.48,0,25.98,12.64,25.98,28.06C412.92,122.98,401.42,135.86,386.94,135.86z"/>
	<polygon class="st0" points="495.67,125.06 495.43,125.06 465.83,61.54 441.21,61.58 483.95,150.1 450.45,222.14 473.47,222.25 
		547.92,61.37 524.4,61.37 	"/>
	<path class="st0" d="M598.87,59.08c-16.99,0-30.11,4.59-31.71,5.29c-0.09,0.04-0.18,0.06-0.28,0.11l4.35,17.31
		c4.89-1.4,15.12-4.1,25.57-4.1c11.72,0,14.48,5.75,14.24,20.23c0,0-8.49-2.76-18.15-2.76c-23.44,0-36.78,12.88-36.78,29.65
		c0,19.07,12.42,30.79,29.65,30.79c14.26,0,23.22-6.89,28.28-11.72l0.09,9.43h16.92V99.99C631.06,77.01,628.3,59.08,598.87,59.08z
		 M610.83,127.81c-2.76,4.59-11.5,11.48-20.69,11.48c-8.51,0-14.02-6.43-14.02-14.7c0-9.43,7.59-15.18,18.61-15.18
		c8.29,0,14.72,2.76,16.09,3.67V127.81z"/>
	<path class="st0" d="M712.65,155.61H681.4c-6.91,0-11.04-4.13-11.04-9.41c0-7.37,7.83-11.28,9.43-11.28
		c1.84,0,8.29,3.69,20.01,3.69c23.9,0,39.06-17.93,39.06-37.48c0-17.23-9.88-24.58-9.88-24.58l15.18-0.06V59.08h-44.59
		c-23.44,0-39.54,18.85-39.54,40.22c0,13.8,7.13,22.3,7.13,22.3s-16.32,8.51-16.32,26.2c0,15.4,12.18,21.61,17.01,22.98v0.7
		c-2.32,1.38-13.56,7.81-13.56,21.61c0,14.94,13.1,31.49,45.51,31.49c30.57,0,48.95-17.93,48.95-38.16
		C748.74,166.41,732.66,155.61,712.65,155.61z M700.01,78.61c11.5,0,19.31,8.75,19.31,21.15c0,12.42-7.81,21.15-19.31,21.15
		c-11.72,0-20.23-8.73-20.23-21.15C679.78,87.35,688.29,78.61,700.01,78.61z M699.55,205.73c-14.02,0-23.9-6.91-23.9-16.32
		c0-10.34,11.26-14.04,12.64-14.5c6.67-0.46,13.56-0.46,20.23-0.46c14.94,0,17.23,9.43,17.23,13.1
		C725.75,198.6,713.57,205.73,699.55,205.73z"/>
	<path class="st0" d="M805.07,59.08c-27.6,0-45.97,22.3-45.97,48.27c0,26.44,18.37,48.27,46.19,48.27c15.4,0,27.36-5.73,34.03-11.48
		c0.24-0.2,0.44-0.39,0.62-0.59l-10.97-14.9c-0.55,0.26-1.16,0.62-1.84,1.01c-4.61,2.98-12.18,6.67-20.47,6.67
		c-14.94,0-25.74-12.2-26.42-24.6h62.5c2.08,0,3.91-1.62,4.15-3.91c0.22-1.6,0.46-4.59,0.46-6.21
		C847.36,77.01,828.97,59.08,805.07,59.08z M781.38,97.24c1.38-11.5,11.04-20.47,23.44-20.47c11.26,0,20.47,9.43,21.15,20.47H781.38
		z"/>
	<g>
		<path class="st0" d="M208.55,146.03c0,0-5.38-14.18-21.39-23.34C99.28,136.92,67.62,176,39.64,158.25c0,0-1.47,13.44,5.38,22.73
			c0,0-22,6.11-38.38,21.27c64.02-30.52,86.57-8.77,116.39,2.35c10.55,3.93,21.87,5.2,33.06,3.93
			c25.84-2.94,49.23-14.09,69.15-36.95c0,0-12.41,12.1-45.89,25.06C179.34,196.63,202.19,179.03,208.55,146.03z"/>
		<path class="st0" d="M89.14,141.14c-11.17,1.02-21.62,1.68-27.26-0.12c13.18-18.09,17.76-35.18,13.2-51.21h105.84
			c3.32,8.44,2.64,17.32-2.2,26.64c13.57-15.28,5.13-31.59,5.13-31.59h-49.49l-0.07-7.15H164c0,0,13.01-17.06,6.23-43.82h-36.37
			l-0.28-28.05h-2.8l-0.1,9.53c-32.01-2.44-34.45,18.52-73.56,4.77c37.48,19.66,42.52-1.78,73.46,5.48l-0.08,8.27H92.13
			c0,0,7.56,22.66-6.23,43.82h44.15l-0.07,7.15H67.2c11.31,18.64,2.75,39.05-13.75,59.03C60.17,147.86,73.37,146.08,89.14,141.14z
			 M166.55,38.5c3.44,17.76-2.39,30.13-5.03,34.61h-27.27L133.9,38.5H166.55z M93.68,73.1c6.35-13.81,5.52-27.15,4.25-34.61h32.52
			L130.1,73.1H93.68z"/>
	</g>
</g>
</svg>
